<svg xmlns="http://www.w3.org/2000/svg" width="100" height="100" viewBox="0 0 26.458 26.458"><path d="M3.746 22.53V10.685h6.09v-6.09h9.727v1.56l1.581-1.518V3.013H9.835l-6.09 6.09-1.58 1.581v13.428h18.98V14.8l-1.582 1.648v6.083z"/><path d="M25.818 7.18L23.43 4.795a.538.538 0 0 0-.762 0l-10.077 9.678a.538.538 0 0 0-.135.224l-1.219 4.005a.538.538 0 0 0 .672.672l4.134-1.258 9.774-10.173a.538.538 0 0 0 0-.761zM13.51 17.904l-.785-.858.544-1.788 1.355.729.73 1.355zM24.303 6.799l-8.586 8.641-.546-.545 8.642-8.587.49.49V6.8z"/></svg>