<svg xmlns="http://www.w3.org/2000/svg" width="100" height="100"><path d="M46.137 1.018a4.682 4.682 0 0 0-4.518 3.39l-2.52 8.793c-.402 1.404-1.446 2.518-2.798 3.07l-.043.018c-1.349.552-2.87.49-4.139-.225l-7.969-4.49a4.682 4.682 0 0 0-5.597.756l-5.846 5.807a4.682 4.682 0 0 0-.797 5.592l4.436 8c.706 1.274.757 2.796.195 4.14l-.018.043c-.56 1.348-1.683 2.383-3.09 2.776l-8.81 2.46a4.682 4.682 0 0 0-3.422 4.493l-.03 8.24a4.682 4.682 0 0 0 3.391 4.517l8.793 2.52c1.404.402 2.52 1.447 3.07 2.799l.018.04c.553 1.35.491 2.872-.224 4.141l-4.49 7.97a4.682 4.682 0 0 0 .757 5.597l5.805 5.846a4.682 4.682 0 0 0 5.592.796l8-4.435c1.274-.707 2.796-.757 4.14-.195l.043.017c1.349.561 2.383 1.683 2.776 3.09l2.46 8.81a4.682 4.682 0 0 0 4.495 3.422l8.238.03a4.682 4.682 0 0 0 4.518-3.393l2.52-8.793c.402-1.404 1.446-2.518 2.798-3.07.014-.006.029-.011.043-.018 1.349-.552 2.87-.489 4.139.227l7.968 4.49a4.682 4.682 0 0 0 5.598-.758l5.848-5.806a4.682 4.682 0 0 0 .795-5.592l-4.434-7.998c-.706-1.275-.759-2.798-.197-4.143l.017-.04c.562-1.35 1.684-2.385 3.09-2.778l8.81-2.46a4.681 4.681 0 0 0 3.423-4.493L99 45.982a4.682 4.682 0 0 0-3.39-4.517l-8.794-2.522c-1.403-.402-2.518-1.445-3.07-2.797l-.017-.042c-.553-1.35-.491-2.871.224-4.141l4.49-7.969a4.682 4.682 0 0 0-.755-5.596l-5.807-5.847a4.682 4.682 0 0 0-5.592-.795l-8 4.435c-1.275.707-2.796.758-4.14.196l-.044-.018c-1.348-.561-2.382-1.683-2.775-3.09l-2.46-8.81a4.682 4.682 0 0 0-4.493-3.422l-8.24-.03zM50 35.619A14.382 14.382 0 0 1 64.38 50 14.382 14.382 0 0 1 50 64.38 14.382 14.382 0 0 1 35.62 50 14.382 14.382 0 0 1 50 35.62z" stroke-width=".196"/></svg>