<svg xmlns="http://www.w3.org/2000/svg" width="100" height="100" viewBox="0 0 26.458 26.458"><path d="M1.323 1.323h23.812v23.812H1.323z" fill="none"/><path d="M2.943 0C1.473 0 .003 1.47.003 2.94v20.578c0 1.471 1.47 2.94 2.94 2.94H23.52c1.47 0 2.94-1.469 2.94-2.939V2.94c0-1.47-1.47-2.94-2.94-2.94zM4.45 2.889a.867.867 0 0 1 .398.122l12.986 7.5c.54.31.54.936 0 1.248L4.846 19.258c-.54.311-1.08 0-1.08-.626V3.637c0-.47.304-.763.684-.748zM18.228 14.7h3.233c.295 0 .589.293.589.587v4.348h1.1c.277 0 .414.17.275.344l-3.321 4.128a.362.362 0 0 1-.556 0l-3.322-4.129c-.139-.172 0-.344.277-.344h1.138v-4.347c0-.294.294-.588.588-.588z"/></svg>