<!-- Generated by IcoMoon.io -->
<svg version="1.1" xmlns="http://www.w3.org/2000/svg" width="32" height="32" viewBox="0 0 32 32">
<title>trash_box</title>
<path d="M26.744 4.985s0.175 0.124-2.55-0.704c-2.442-0.741-4.753-0.901-4.753-0.901l-0.16-1.135c-0.11-0.783-0.751-1.363-1.507-1.363h-3.606c-0.754 0-1.396 0.58-1.507 1.363l-0.16 1.135s-2.309 0.159-4.752 0.901c-2.726 0.828-2.55 0.704-2.55 0.704-0.607 0.168-1.032 0.744-1.032 1.404v0.982h23.609v-0.982c0-0.659-0.424-1.236-1.033-1.404z"></path>
<path d="M6.124 28.221c0.139 1.574 1.457 2.781 3.038 2.781h13.62c1.58 0 2.899-1.207 3.038-2.781l1.508-19.249h-22.712zM21.032 13.23c0.030-0.494 0.455-0.871 0.949-0.841s0.871 0.455 0.841 0.949l-0.853 14.089c-0.030 0.494-0.455 0.871-0.949 0.841s-0.871-0.454-0.841-0.949zM15.075 13.284c0-0.495 0.401-0.897 0.897-0.897s0.897 0.401 0.897 0.897v14.089c0 0.495-0.401 0.897-0.897 0.897s-0.897-0.401-0.897-0.897zM9.962 12.389c0.494-0.030 0.919 0.347 0.949 0.841l0.854 14.089c0.030 0.494-0.347 0.919-0.841 0.949s-0.919-0.346-0.949-0.841l-0.854-14.089c-0.030-0.494 0.347-0.919 0.841-0.949z"></path>
</svg>
