<svg aria-hidden="true" style="position: absolute; width: 0; height: 0; overflow: hidden;" version="1.1" xmlns="http://www.w3.org/2000/svg" xmlns:xlink="http://www.w3.org/1999/xlink">
<defs>
<symbol id="icon-arrow" viewBox="0 0 32 32">
<path d="M16.001 9.6l-11.201 11.2 2.634 2.637 8.565-8.565 8.564 8.565 2.637-2.637-11.201-11.2z"></path>
</symbol>
<symbol id="icon-edit" viewBox="0 0 32 32">
<path d="M4.531 27.249v-14.326h7.366v-7.366h11.764v1.887l1.912-1.836v-1.964h-13.678l-9.277 9.278v16.241h22.956v-11.263l-1.913 1.993v7.357z"></path>
<path d="M31.226 8.684l-2.888-2.885c-0.118-0.118-0.281-0.191-0.461-0.191s-0.343 0.073-0.461 0.191l-0 0-12.188 11.705c-0.074 0.073-0.13 0.165-0.162 0.266l-0.001 0.005-1.474 4.844c-0.018 0.057-0.029 0.123-0.029 0.191 0 0.359 0.291 0.651 0.651 0.651 0.068 0 0.134-0.010 0.195-0.030l-0.005 0.001 5-1.521 11.821-12.304c0.118-0.118 0.191-0.28 0.191-0.46s-0.073-0.342-0.191-0.46v0zM16.34 21.654l-0.949-1.038 0.658-2.163 1.639 0.882 0.883 1.639zM29.394 8.223l-10.384 10.451-0.66-0.659 10.452-10.386 0.593 0.593v0.002z"></path>
</symbol>
<symbol id="icon-option" viewBox="0 0 32 32">
<path d="M14.764 0.326c-0.002 0-0.004 0-0.006 0-0.68 0-1.255 0.453-1.437 1.074l-0.003 0.011-0.806 2.814c-0.129 0.449-0.463 0.806-0.895 0.982l-0.014 0.006c-0.432 0.177-0.918 0.157-1.324-0.072l-2.55-1.437c-0.212-0.121-0.465-0.193-0.736-0.193-0.412 0-0.785 0.166-1.056 0.435l0-0-1.871 1.858c-0.273 0.271-0.443 0.648-0.443 1.063 0 0.267 0.070 0.517 0.192 0.734l-0.004-0.008 1.42 2.56c0.226 0.408 0.242 0.895 0.062 1.325l-0.006 0.014c-0.179 0.431-0.539 0.763-0.989 0.888l-2.819 0.787c-0.635 0.182-1.093 0.756-1.095 1.437v0l-0.010 2.637c0 0.002 0 0.003 0 0.005 0 0.68 0.453 1.255 1.075 1.438l0.011 0.003 2.814 0.806c0.449 0.129 0.806 0.463 0.982 0.896l0.006 0.013c0.177 0.432 0.157 0.919-0.072 1.325l-1.437 2.55c-0.121 0.212-0.193 0.465-0.193 0.735 0 0.412 0.166 0.785 0.435 1.056l1.858 1.871c0.271 0.273 0.648 0.443 1.063 0.443 0.267 0 0.517-0.070 0.734-0.192l-0.008 0.004 2.56-1.419c0.408-0.226 0.895-0.242 1.325-0.062l0.014 0.005c0.432 0.18 0.763 0.539 0.888 0.989l0.787 2.819c0.182 0.635 0.756 1.093 1.438 1.095h0l2.636 0.010c0.002 0 0.003 0 0.005 0 0.681 0 1.255-0.454 1.438-1.075l0.003-0.011 0.806-2.814c0.129-0.449 0.463-0.806 0.895-0.982 0.004-0.002 0.009-0.004 0.014-0.006 0.432-0.177 0.918-0.156 1.324 0.073l2.55 1.437c0.212 0.121 0.465 0.193 0.735 0.193 0.412 0 0.785-0.166 1.056-0.436l1.871-1.858c0.273-0.271 0.442-0.647 0.442-1.063 0-0.267-0.070-0.517-0.192-0.734l0.004 0.008-1.419-2.559c-0.226-0.408-0.243-0.895-0.063-1.326l0.005-0.013c0.18-0.432 0.539-0.763 0.989-0.889l2.819-0.787c0.635-0.181 1.093-0.756 1.095-1.438v-0l0.009-2.636c0-0.002 0-0.003 0-0.005 0-0.68-0.453-1.255-1.074-1.437l-0.011-0.003-2.814-0.807c-0.449-0.129-0.806-0.462-0.982-0.895l-0.005-0.013c-0.177-0.432-0.157-0.919 0.072-1.325l1.437-2.55c0.121-0.212 0.193-0.465 0.193-0.736 0-0.412-0.166-0.784-0.435-1.055l0 0-1.858-1.871c-0.271-0.273-0.647-0.442-1.063-0.442-0.267 0-0.517 0.070-0.734 0.192l0.008-0.004-2.56 1.419c-0.408 0.226-0.895 0.243-1.325 0.063l-0.014-0.006c-0.431-0.18-0.762-0.539-0.888-0.989l-0.787-2.819c-0.182-0.635-0.756-1.093-1.437-1.095l-2.637-0.010zM16 11.398c2.541 0 4.601 2.061 4.602 4.602v0c-0 2.541-2.060 4.601-4.602 4.602h-0c-2.541-0-4.601-2.060-4.602-4.602v-0c0-2.541 2.060-4.601 4.602-4.602h0z"></path>
</symbol>
<symbol id="icon-handle" viewBox="0 0 32 32">
<path d="M3.598 5h24.804c0.33 0 0.597 0.267 0.597 0.597v1.807c0 0.33-0.267 0.597-0.597 0.597h-24.804c-0.33 0-0.597-0.267-0.597-0.597v-1.807c0-0.33 0.267-0.597 0.597-0.597z"></path>
<path d="M3.598 14.498h24.804c0.33 0 0.597 0.267 0.597 0.597v1.807c0 0.33-0.267 0.597-0.597 0.597h-24.804c-0.33 0-0.597-0.267-0.597-0.597v-1.807c0-0.33 0.267-0.597 0.597-0.597z"></path>
<path d="M3.598 23.999h24.804c0.33 0 0.597 0.267 0.597 0.597v1.807c0 0.33-0.267 0.597-0.597 0.597h-24.804c-0.33 0-0.597-0.267-0.597-0.597v-1.807c0-0.33 0.267-0.597 0.597-0.597z"></path>
</symbol>
<symbol id="icon-play_here" viewBox="0 0 32 32">
<path d="M3.559 0c-1.778 0-3.556 1.778-3.556 3.556v24.888c0 1.779 1.778 3.556 3.556 3.556h24.887c1.778 0 3.556-1.777 3.556-3.555v-24.89c0-1.778-1.778-3.556-3.556-3.556zM5.382 3.494c0.179 0.010 0.344 0.064 0.486 0.15l-0.005-0.003 15.706 9.071c0.653 0.375 0.653 1.132 0 1.509l-15.709 9.070c-0.653 0.376-1.306 0-1.306-0.757v-18.136c0-0.568 0.368-0.923 0.827-0.905zM22.046 17.779h3.91c0.357 0 0.712 0.354 0.712 0.71v5.259h1.33c0.335 0 0.501 0.206 0.333 0.416l-4.017 4.993c-0.081 0.096-0.201 0.157-0.336 0.157s-0.255-0.061-0.336-0.157l-0.001-0.001-4.018-4.994c-0.168-0.208 0-0.416 0.335-0.416h1.376v-5.258c0-0.356 0.356-0.711 0.711-0.711z"></path>
</symbol>
<symbol id="icon-reload" viewBox="0 0 32 32">
<path d="M16 1.56c-7.975 0-14.44 6.465-14.441 14.44v0c0 7.976 6.465 14.441 14.441 14.441v0c6.248-0.008 11.566-3.982 13.571-9.54l0.032-0.101h-4.148c-1.789 3.474-5.348 5.81-9.454 5.815h-0.001c-0 0-0.001 0-0.001 0-5.862 0-10.614-4.752-10.614-10.614 0-0 0-0.001 0-0.001v0c0-0 0-0.001 0-0.001 0-5.862 4.752-10.614 10.614-10.614 0 0 0.001 0 0.001 0h-0c4.111 0 7.676 2.338 9.439 5.756l0.028 0.059h4.134c-2.037-5.657-7.353-9.63-13.598-9.639h-0.001z"></path>
<path d="M30.079 3.2v9.6h-9.6z"></path>
</symbol>
<symbol id="icon-search" viewBox="0 0 32 32">
<path d="M22.317 19.020c2.564-4.070 2.079-9.525-1.463-13.066-4.107-4.109-10.792-4.109-14.901 0-4.107 4.109-4.107 10.792 0 14.901 3.541 3.541 8.997 4.026 13.067 1.462l7.009 7.010 3.298-3.297zM18.194 18.195c-1.227 1.224-2.92 1.981-4.79 1.981s-3.563-0.757-4.79-1.981l0 0c-1.224-1.227-1.981-2.92-1.981-4.791s0.757-3.564 1.981-4.791l-0 0c1.227-1.224 2.92-1.981 4.79-1.981s3.563 0.757 4.79 1.981l-0-0c1.224 1.227 1.981 2.92 1.981 4.791s-0.757 3.564-1.981 4.791l0-0z"></path>
</symbol>
</defs>
</svg>
